<?xml version="1.0" encoding="utf-8"?>
<!-- Generator: Adobe Illustrator 21.0.0, SVG Export Plug-In . SVG Version: 6.00 Build 0)  -->
<svg version="1.1" id="图层_1" xmlns="http://www.w3.org/2000/svg" xmlns:xlink="http://www.w3.org/1999/xlink" x="0px" y="0px"
	 viewBox="0 0 107 20" style="enable-background:new 0 0 107 20;" xml:space="preserve">
<style type="text/css">
	.st0{fill:#F08C00;}
</style>
<title>logo</title>
<g id="XMLID_213_">
	<g id="XMLID_3612_">
		<g id="XMLID_3635_">
			<path id="XMLID_3639_" class="st0" d="M16.4,17.4c2.6-1.2,4.7-2.8,5.3-3.9l0,0l0.1-0.1c0.1-0.1,0.1-0.2,0.1-0.3v-0.5
				c0-0.2-0.2-0.4-0.4-0.4H5.1c0-0.1,0-0.3,0-0.5H1.9c0,1.3,0.1,5.9-1.9,6v1.8c0,0,4.3,0.7,5-5.6h12.5l0,0c0,0-1.4,1.4-4.5,2.5
				c-2.3-0.8-3.6-1.7-3.6-1.7H5.8c1.2,1.1,2.6,1.9,4,2.6C7.1,17.8,5,17.7,5,17.7v1.8c0,0,4.3,0.2,8.3-1c2.1,0.6,4.1,0.8,5.6,1
				c2,0.2,3.3,0,3.3,0v-1.8C20.1,18,18.1,17.8,16.4,17.4z"/>
			<path id="XMLID_3636_" class="st0" d="M1.9,5.2v5.4c0,0.3,0.2,0.5,0.5,0.5h17l0,0h2.2c0.3,0,0.5-0.2,0.5-0.5V4.3
				c0-0.3-0.2-0.5-0.5-0.5H5c0.3-0.3,0.6-0.7,0.9-1.1h16.2V0.9H6.6c0-0.2,0.1-0.4,0.1-0.7H3.2c0,0-0.5,3.4-3.2,3.4v1.8
				C0,5.3,0.9,5.4,1.9,5.2z M5.1,6.6V5.4h13.8v4H5.1V8.3h12.8V6.6H5.1z"/>
		</g>
		<g id="XMLID_3630_">
			<path id="XMLID_3632_" class="st0" d="M28.4,9.6h19.1c0.3,0,0.5-0.2,0.5-0.5v-8c0-0.3-0.2-0.5-0.5-0.5H28.4
				c-0.3,0-0.5,0.2-0.5,0.5V9C27.8,9.4,28.1,9.6,28.4,9.6z M31,4.2V2.4h13.9v5.5H31v-2h12.9V4.2H31z"/>
			<path id="XMLID_3631_" class="st0" d="M39.8,17.9v-1.6h8.1v-1.8h-8.1V13h8.3v-1.8h-8.3v-1h-3.2v1h-5.7c0.1-0.3,0.1-0.6,0.2-1
				h-3.3c0,0-0.1,2-1.8,2V14c0,0,2.3,0.3,3.8-1h6.8v1.6h-8.3v1.8h8.3v1.6h-9.5v1.8h21.7v-1.8H39.8z"/>
		</g>
	</g>
	<g id="XMLID_768_">
		<path id="XMLID_808_" class="st0" d="M71,1.4c-0.1-0.5-0.5-0.8-1-0.8H56.3c-0.5,0-0.9,0.3-1,0.8c-0.3,1.3-0.8,4-2.9,5.8v2.6
			c0,0,4-1.4,5.8-7.4H68c1.9,6,5.8,7.4,5.8,7.4V7.2C71.8,5.2,71.3,2.7,71,1.4z"/>
		<path id="XMLID_816_" class="st0" d="M72.1,14h-3c0,0-0.8,2.1-1.8,3.9h-2.5v-5.4h7.8v-1.8h-7.8V7.9h4.5V6.1H57.1v1.8h4.5v2.7h-7.8
			v1.8h7.8v5.5h-2.5c-1.1-1.8-1.9-4-1.9-4h-3c0.9,1.9,1.9,3.4,2.3,3.9h-3.8v1.8h20.7v-1.7h-3.8C70.1,17.4,71.2,15.9,72.1,14z"/>
	</g>
	<g id="XMLID_752_">
		<path id="XMLID_819_" class="st0" d="M85.9,0.6h-7.1c-0.3,0-0.5,0.2-0.5,0.5v0.5l0,0c0,0,0,9,0,9.8c0,4.1,0,5.2-1.1,6.4v2
			c3.4-1,3.8-3.9,3.9-6.9h2.6v4.6c0,0.3-0.3,0.6-0.6,0.6h-1.5v1.6h3.7c0.7,0,1.2-0.6,1.2-1.2v-13V1.8V1.1
			C86.4,0.8,86.2,0.6,85.9,0.6z M81.1,2.4h2.6v3.5h-2.6V5.4l0,0V2.4z M81.1,11.1V7.5h2.6v3.6H81.1z"/>
		<path id="XMLID_879_" class="st0" d="M99.4,17.7c0,0-1.5-0.6-3.2-2c1.8-2.4,2.7-5,2.8-6.5V8.7c0-0.3-0.2-0.5-0.5-0.5h-0.7h-2.1
			h-5.1V5.4V2.4h5.3v2.1c0,0.3-0.3,0.6-0.6,0.6h-2.8v1.6h4.9c0.7,0,1.2-0.6,1.2-1.2V1.1c0-0.3-0.2-0.5-0.5-0.5h-9.8
			c-0.3,0-0.5,0.2-0.5,0.5v0.6v3.7v14.3h2.8v-8.8v-1h5.8c-0.3,1.7-1,3.1-1.7,4.2c-0.7-0.9-1.3-1.9-1.7-3.2h-2.5c0,0,0.6,2.5,2.8,4.9
			c-1.2,1.3-2.2,1.9-2.2,1.9v2c1.5-0.6,2.7-1.4,3.7-2.5c1.2,1,2.7,1.9,4.5,2.5L99.4,17.7L99.4,17.7z"/>
	</g>
</g>
</svg>
