<?xml version="1.0" encoding="utf-8"?>
<!-- Generator: Adobe Illustrator 21.0.0, SVG Export Plug-In . SVG Version: 6.00 Build 0)  -->
<svg version="1.1" id="图层_1" xmlns="http://www.w3.org/2000/svg" xmlns:xlink="http://www.w3.org/1999/xlink" x="0px" y="0px"
	 viewBox="0 0 257.2 20" style="enable-background:new 0 0 257.2 20;" xml:space="preserve">
<style type="text/css">
	.st0{fill:#FFFFFF;}
	.st1{fill:#D28223;}
	.st2{enable-background:new    ;}
</style>
<path class="st0" d="M121.6,9.9c1.2-2,2-4.2,2.6-6.6l0.9,0.2c-0.2,1.1-0.6,2.2-0.9,3.2v9.9h-0.9V8.9c-0.4,0.7-0.8,1.5-1.2,2.2
	C121.9,10.6,121.8,10.3,121.6,9.9z M125.5,10.6c0.2,1,0.5,1.8,0.9,2.4c0.4-1,0.6-2.1,0.6-3.3h-2V8.8l1.9-3.1h-1.8V4.8h2.9v0.9
	l-1.9,3.2h1.9v0.9c0,1.5-0.3,2.9-0.9,4.1c1,1,2.3,1.4,4,1.4c1.3,0,2.7,0,4.1-0.1c-0.1,0.3-0.3,0.7-0.4,1.1c-1.3,0-2.5,0-3.8,0
	c-1.8,0-3.3-0.5-4.4-1.4c-0.4,0.7-0.9,1.4-1.5,2c-0.3-0.3-0.5-0.6-0.7-0.8c0.6-0.6,1.1-1.3,1.6-2c-0.6-0.8-1-1.8-1.3-3.1L125.5,10.6
	z M128.2,12.7h2.5v-1.2h-2.1v-0.8h2.1V9.5h-2V8.8h2V7.6H128V6.8h2.6V5.6h-1.9V4.8h1.9V3.4h0.9v1.4h2.5v2h1.1v0.8H134v2.3h-0.9V9.5
	h-1.5v1.2h2.7v0.8h-2.7v1.2h2.9v0.8h-2.9v1.4h-0.9v-1.4h-2.5L128.2,12.7L128.2,12.7z M133.1,5.6h-1.5v1.2h1.5V5.6z M133.1,8.8V7.6
	h-1.5v1.2H133.1z"/>
<path class="st0" d="M142.3,3.7l0.9-0.5c0.3,0.4,0.6,0.9,0.9,1.5h4.9v0.9h-10.9v3h4.6v-1H139V6.8h3.7V5.9h1v0.9h3.9v1.8h1.5v0.8
	h-1.5v2.1h-0.9v-0.3h-3v0.3c0.4,0.5,0.9,1,1.4,1.5c0.9-0.5,1.8-1,2.5-1.4l0.6,0.8c-0.7,0.4-1.5,0.8-2.4,1.2c1,0.7,2,1.3,3.2,1.6
	c-0.3,0.4-0.5,0.7-0.7,1c-2-0.9-3.6-2-4.7-3.3v2.2c0,1-0.5,1.4-1.5,1.4c-0.4,0-1,0-1.7,0c0-0.4-0.1-0.7-0.2-1.1
	c0.7,0.1,1.3,0.1,1.7,0.1s0.7-0.2,0.7-0.7V14c-1.4,0.5-2.9,1-4.6,1.5l-0.3-1c1.9-0.5,3.5-1.1,4.8-1.5v-1.9h-3.8v-0.8h3.8v-1h-4.6
	v0.3c0,2.9-0.6,5.2-1.7,7c-0.2-0.3-0.5-0.6-0.8-0.9c0.9-1.5,1.4-3.5,1.4-6v-5h5.8C142.7,4.4,142.5,4,142.3,3.7z M138.8,12.3l0.5-0.7
	c0.7,0.4,1.4,0.8,1.9,1.2l-0.6,0.8C140.1,13.2,139.5,12.7,138.8,12.3z M146.7,7.6h-3v1h3V7.6z M146.7,10.5v-1h-3v1H146.7z"/>
<path class="st0" d="M164.3,6.5l0.9,0.1c-0.1,1.1-0.3,2.3-0.6,3.5c-0.3-0.1-0.6-0.1-0.9-0.2C163.9,9,164.1,7.8,164.3,6.5z
	 M165.6,3.4h1v3l0.5-0.4c0.6,0.7,1.1,1.3,1.5,1.9l-0.8,0.6c-0.4-0.6-0.8-1.2-1.3-1.7v9.9h-1V3.4H165.6z M167.6,10.1h3.6
	c0.1-0.8,0.1-1.9,0.2-3.4h-2.9v-1h2.9c0-0.7,0-1.5,0-2.4h1.1c0,0.9,0,1.7,0,2.4h3.3V10h1.3v1h-4.4c0.7,2.1,2.2,3.6,4.4,4.6
	c-0.2,0.2-0.5,0.6-0.9,1.1c-2.1-1.2-3.5-2.8-4.2-5c-0.5,2.1-1.9,3.8-4,5.1c-0.3-0.4-0.6-0.7-0.8-0.9c2.2-1.3,3.5-2.9,4-4.8h-3.5v-1
	C167.7,10.1,167.6,10.1,167.6,10.1z M174.7,6.7h-2.3c0,1.4-0.1,2.6-0.1,3.4h2.4L174.7,6.7L174.7,6.7z"/>
<path class="st0" d="M181.2,11.1l1,0.7c-1.3,1.8-2.5,3.1-3.6,4.2c-0.3-0.2-0.5-0.5-0.9-0.8C179,14,180.1,12.6,181.2,11.1z
	 M179.6,4.4c3.5-0.1,6.7-0.3,9.8-0.6l0.4,1.1c-3.2,0.3-6.3,0.5-9.2,0.5l-0.5,3.9h4V6.2h1.1v3.1h5.4v1h-5.4v4.3
	c0,0.7-0.1,1.2-0.4,1.4c-0.3,0.3-0.7,0.4-1.4,0.4c-0.3,0-0.9,0-1.8,0c0-0.4-0.1-0.8-0.2-1.2c0.9,0.1,1.5,0.1,1.8,0.1
	c0.6,0,0.9-0.3,0.9-0.9v-4.2h-5.3L179.6,4.4z M187.7,11.1c1.3,1.4,2.5,2.7,3.6,4l-0.9,0.8c-1.1-1.4-2.2-2.8-3.6-4.2L187.7,11.1z"/>
<path class="st0" d="M220.2,15.2h5.8v-3.3h-4.9v-1h4.9v-2h-3.6V8c-0.6,0.4-1.3,0.8-2.1,1.2c-0.2-0.3-0.4-0.7-0.7-1
	c3-1.4,5.2-3.1,6.4-4.9h1.5l-0.3,0.4c1.4,1.9,3.5,3.3,6.2,4.3c-0.2,0.3-0.5,0.7-0.7,1.1c-0.7-0.3-1.4-0.7-2.1-1.1v0.9H227v1.9h4.9v1
	H227v3.3h5.8v1h-12.7L220.2,15.2L220.2,15.2z M221.7,12.7l0.8-0.6c0.7,0.7,1.3,1.4,2,2.1l-0.9,0.7C223,14.2,222.4,13.4,221.7,12.7z
	 M226.5,4.4c-0.9,1.2-2.3,2.3-4.1,3.5h8C229.1,7,227.7,5.9,226.5,4.4z M228.5,14.3c0.7-0.8,1.4-1.5,1.9-2.2l1,0.6
	c-0.6,0.8-1.3,1.6-2,2.3L228.5,14.3z"/>
<path class="st0" d="M234.2,3.9h6.7v0.9h-6.7V3.9z M235.2,16.6h-0.9v-7h6.5v5.7c0,0.9-0.5,1.3-1.4,1.3h-1.1c0-0.3-0.1-0.6-0.2-0.9
	c0.4,0,0.8,0.1,1.1,0.1c0.4,0,0.6-0.2,0.6-0.6v-4.7h-4.7L235.2,16.6L235.2,16.6z M234.8,5.7h5.4V9h-0.9V8.7h-3.6V9h-0.9V5.7z
	 M235.4,12.7h2.1c0.5-0.9,0.9-1.6,1-2l0.8,0.4c-0.4,0.6-0.7,1.1-1,1.6h1.2v0.8h-1.7v2.8H237v-2.8h-1.7L235.4,12.7L235.4,12.7z
	 M235.7,11.2l0.7-0.4c0.3,0.4,0.6,0.9,0.9,1.4l-0.7,0.4C236.2,12.1,235.9,11.6,235.7,11.2z M239.3,6.5h-3.6v1.3h3.6V6.5z
	 M245.4,12.7l0.9-0.3c0.4,1.4,0.8,2.7,1,3.9l-1,0.2c-0.1-0.2-0.1-0.5-0.2-0.7c-1.7,0.2-3.4,0.4-4.9,0.6l-0.2-1.1
	c0.9-0.1,1.7-0.1,2.5-0.2v-3.7h-1.1v0.5h-1v-6h2.1V3.4h1v2.4h2.1v5.6h-2.1V15c0.5,0,0.9-0.1,1.4-0.1
	C245.8,14.2,245.6,13.4,245.4,12.7z M242.5,10.5h1.1V6.7h-1.1V10.5z M245.7,10.5V6.7h-1.1v3.8H245.7z"/>
<g id="XMLID_213_">
	<g id="XMLID_3612_">
		<g id="XMLID_3635_">
			<path id="XMLID_3639_" class="st1" d="M16.8,17.5c2.6-1.2,4.7-2.8,5.4-3.9l0,0l0.1-0.1c0.1-0.1,0.1-0.2,0.1-0.3v-0.5
				c0-0.2-0.2-0.4-0.4-0.4H5.4c0-0.1,0-0.3,0-0.5H2.1c0,1.3,0.1,6-1.9,6.1v1.8c0,0,4.3,0.7,5.1-5.7h12.6l0,0c0,0-1.4,1.4-4.5,2.5
				c-2.3-0.8-3.6-1.7-3.6-1.7H6.1c1.2,1.1,2.6,1.9,4,2.6c-2.7,0.5-4.8,0.4-4.8,0.4v1.8c0,0,4.3,0.2,8.4-1c2.1,0.6,4.1,0.8,5.7,1
				c2,0.2,3.3,0,3.3,0v-1.8C20.5,18.1,18.5,17.9,16.8,17.5z"/>
			<path id="XMLID_3636_" class="st1" d="M2.1,5.2v5.5c0,0.3,0.2,0.5,0.5,0.5h17.2l0,0H22c0.3,0,0.5-0.2,0.5-0.5V4.2
				c0-0.3-0.2-0.5-0.5-0.5H5.3C5.6,3.4,5.9,3,6.2,2.6h16.4V0.8H6.9C6.9,0.6,7,0.4,7,0.1H3.4c0,0-0.5,3.4-3.2,3.4v1.8
				C0.2,5.3,1.1,5.4,2.1,5.2z M5.4,6.6V5.4h13.9v4H5.4V8.3h12.9V6.6H5.4z"/>
		</g>
		<g id="XMLID_3630_">
			<path id="XMLID_3632_" class="st1" d="M28.9,9.6h19.3c0.3,0,0.5-0.2,0.5-0.5V1c0-0.3-0.2-0.5-0.5-0.5H28.9
				c-0.3,0-0.5,0.2-0.5,0.5v8C28.3,9.4,28.6,9.6,28.9,9.6z M31.5,4.1V2.3h14v5.6h-14v-2h13V4.1H31.5z"/>
			<path id="XMLID_3631_" class="st1" d="M40.4,18v-1.6h8.2v-1.8h-8.2V13h8.4v-1.8h-8.4v-1h-3.2v1h-5.8c0.1-0.3,0.1-0.6,0.2-1h-3.3
				c0,0-0.1,2-1.8,2V14c0,0,2.3,0.3,3.8-1h6.9v1.6h-8.4v1.8h8.4V18h-9.6v1.8h21.9V18H40.4z"/>
		</g>
	</g>
	<g id="XMLID_768_">
		<path id="XMLID_808_" class="st1" d="M71.9,1.3c-0.1-0.5-0.5-0.8-1-0.8H57.1c-0.5,0-0.9,0.3-1,0.8c-0.3,1.3-0.8,4-2.9,5.9v2.6
			c0,0,4-1.4,5.9-7.5h9.8c1.9,6.1,5.9,7.5,5.9,7.5V7.2C72.7,5.2,72.2,2.6,71.9,1.3z"/>
		<path id="XMLID_816_" class="st1" d="M73,14h-3c0,0-0.8,2.1-1.8,3.9h-2.5v-5.5h7.9v-1.8h-7.9V7.9h4.5V6.1H57.9v1.8h4.5v2.7h-7.9
			v1.8h7.9V18h-2.5c-1.1-1.8-1.9-4-1.9-4h-3c0.9,1.9,1.9,3.4,2.3,3.9h-3.8v1.8h20.9V18h-3.8C71,17.5,72.1,16,73,14z"/>
	</g>
	<g id="XMLID_752_">
		<path id="XMLID_819_" class="st1" d="M87,0.5h-7.2c-0.3,0-0.5,0.2-0.5,0.5v0.5l0,0c0,0,0,9.1,0,9.9c0,4.1,0,5.3-1.1,6.5v2
			c3.4-1,3.8-3.9,3.9-7h2.6v4.6c0,0.3-0.3,0.6-0.6,0.6h-1.5v1.6h3.7c0.7,0,1.2-0.6,1.2-1.2V5.4V1.7V1C87.5,0.7,87.3,0.5,87,0.5z
			 M82.1,2.3h2.6v3.5h-2.6V5.4l0,0V2.3z M82.1,11.1V7.5h2.6v3.6H82.1z"/>
		<path id="XMLID_879_" class="st1" d="M100.6,17.8c0,0-1.5-0.6-3.2-2c1.8-2.4,2.7-5.1,2.8-6.6V8.7c0-0.3-0.2-0.5-0.5-0.5H99h-2.1
			h-5.2V5.4V2.3h5.4v2.1c0,0.3-0.3,0.6-0.6,0.6h-2.8v1.6h5c0.7,0,1.2-0.6,1.2-1.2V1c0-0.3-0.2-0.5-0.5-0.5h-9.9
			C89.2,0.5,89,0.7,89,1v0.6v3.7v14.4h2.8v-8.9v-1h5.9c-0.3,1.7-1,3.1-1.7,4.2c-0.7-0.9-1.3-1.9-1.7-3.2h-2.5c0,0,0.6,2.5,2.8,5
			c-1.2,1.3-2.2,1.9-2.2,1.9v2c1.5-0.6,2.7-1.4,3.7-2.5c1.2,1,2.7,1.9,4.5,2.5L100.6,17.8L100.6,17.8z"/>
	</g>
</g>
<g class="st2">
	<path class="st0" d="M206.3,15.2h6.2v-1.3H208v-1h4.5v-1.3h-4c-0.5,0.8-1.1,1.5-1.7,2.1c-0.2-0.2-0.5-0.5-0.8-0.8
		c1-1,1.9-2.3,2.6-3.6l1,0.4c-0.2,0.3-0.3,0.6-0.5,0.9h3.3V9.5h1.1v1.2h5.1v1h-5.1V13h4.8v1h-4.8v1.3h5.8v1h-13.1L206.3,15.2
		L206.3,15.2z M207.7,3.9H218v5.7h-1V9.1h-9.2V3.9H207.7z M216.9,4.8h-8.2V6h8.2V4.8z M208.7,8.2h8.2V7h-8.2V8.2z"/>
</g>
</svg>
