<svg xmlns="http://www.w3.org/2000/svg" width="54" height="54" viewBox="0 0 54 54">
  <metadata><?xpacket begin="﻿" id="W5M0MpCehiHzreSzNTczkc9d"?>
<x:xmpmeta xmlns:x="adobe:ns:meta/" x:xmptk="Adobe XMP Core 5.6-c138 79.159824, 2016/09/14-01:09:01        ">
   <rdf:RDF xmlns:rdf="http://www.w3.org/1999/02/22-rdf-syntax-ns#">
      <rdf:Description rdf:about=""/>
   </rdf:RDF>
</x:xmpmeta>
                                                                                                    
                                                                                                    
                                                                                                    
                                                                                                    
                                                                                                    
                                                                                                    
                                                                                                    
                                                                                                    
                                                                                                    
                                                                                                    
                                                                                                    
                                                                                                    
                                                                                                    
                                                                                                    
                                                                                                    
                                                                                                    
                                                                                                    
                                                                                                    
                                                                                                    
                                                                                                    
                           
<?xpacket end="w"?></metadata>
<defs>
    <style>
      .cls-1 {
        fill: #fff;
        fill-rule: evenodd;
      }
    </style>
  </defs>
  <g id="画板_1" data-name="画板 1">
    <path id="形状_17" data-name="形状 17" class="cls-1" d="M168.9,42.075c-0.83-.37-1.71-0.713-2.627-1.031a30.671,30.671,0,0,0,.535-4.294,1.137,1.137,0,1,0-2.272-.115,28.208,28.208,0,0,1-.449,3.722,50.576,50.576,0,0,0-7.691-1.511,50.723,50.723,0,0,0-5.408-5.73,28.131,28.131,0,0,1,2.885-2.369,1.141,1.141,0,0,0-1.307-1.87,30.5,30.5,0,0,0-3.324,2.751l-0.028-.023c-3.881-3.11-7.516-4.75-10.512-4.75a6.366,6.366,0,0,0-3.592,1.016c-2.833,1.882-3.809,6.063-2.743,11.774,0.078,0.413.168,0.833,0.266,1.256-0.551.195-1.088,0.4-1.6,0.614-5.111,2.142-7.962,5.143-8.028,8.459-0.067,3.407,2.809,6.583,8.1,8.943,0.826,0.368,1.7.709,2.612,1.026-0.182.952-.324,1.883-0.418,2.786-0.6,5.778.705,9.869,3.682,11.514a6.192,6.192,0,0,0,3.032.75c2.514,0,5.479-1.283,8.626-3.782,0.711-.565,1.421-1.187,2.127-1.853l0.024,0.02c3.882,3.11,7.517,4.75,10.512,4.75a6.371,6.371,0,0,0,3.593-1.023c2.833-1.882,3.809-6.063,2.742-11.775-0.076-.409-0.165-0.824-0.26-1.242,0.549-.193,1.084-0.4,1.6-0.609,5.112-2.142,7.963-5.143,8.029-8.459C177.067,47.611,174.192,44.435,168.9,42.075Zm-5.3.509a45.96,45.96,0,0,1-1.445,4.692q-0.987-1.732-2.114-3.446-0.815-1.234-1.67-2.406A45.691,45.691,0,0,1,163.6,42.584Zm-5.06,12.633c-0.942,1.717-1.948,3.356-3,4.9-1.486.115-3.01,0.176-4.561,0.176-0.391,0-.783-0.006-1.175-0.012-1.707-.032-3.387-0.135-5.019-0.3-1.014-1.291-2-2.655-2.937-4.083-1.078-1.639-2.057-3.3-2.931-4.955,0.738-1.718,1.579-3.449,2.521-5.168s1.955-3.362,3.012-4.912c1.485-.115,3.009-0.176,4.558-0.176,0.386,0,.784.006,1.17,0.012,1.7,0.032,3.383.135,5.014,0.3,1.015,1.293,2,2.659,2.942,4.089,1.076,1.636,2.053,3.294,2.926,4.947C160.328,51.761,159.486,53.5,158.545,55.217Zm3.834-2.532a43.938,43.938,0,0,1,2.234,5.877,43.643,43.643,0,0,1-6.129,1.245q1.068-1.684,2.056-3.483C161.2,55.119,161.813,53.9,162.379,52.685ZM150.635,66.264a45.9,45.9,0,0,1-3.784-3.815c0.962,0.063,1.935.107,2.918,0.125,0.4,0.006.819,0.012,1.223,0.012,0.952,0,1.894-.024,2.826-0.067A45.58,45.58,0,0,1,150.635,66.264Zm-9.012-6.711a45.682,45.682,0,0,1-5.241-1.163,45.689,45.689,0,0,1,1.45-4.712q0.995,1.746,2.13,3.474Q140.772,58.385,141.623,59.554Zm-4.01-11.263a44.038,44.038,0,0,1-2.232-5.875,43.7,43.7,0,0,1,6.142-1.248c-0.719,1.129-1.414,2.3-2.073,3.5S138.178,47.08,137.613,48.291Zm15.543-9.745c-0.964-.063-1.939-0.107-2.923-0.125-0.4-.006-0.814-0.012-1.218-0.012-0.955,0-1.9.024-2.835,0.067a46.253,46.253,0,0,1,3.186-3.752A45.945,45.945,0,0,1,153.156,38.546Zm-18.552.679c-0.874-4.677-.236-8.12,1.76-9.445a4.162,4.162,0,0,1,2.338-.641c2.4,0,5.562,1.464,8.92,4.116a50.81,50.81,0,0,0-4.432,5.433,48.159,48.159,0,0,0-8.384,1.526C134.732,39.881,134.664,39.551,134.6,39.225Zm-2.58,17.6c-4.334-1.93-6.8-4.417-6.751-6.813,0.042-2.317,2.459-4.653,6.63-6.4,0.423-.177.864-0.344,1.313-0.506a48.586,48.586,0,0,0,3.2,7.926,50.561,50.561,0,0,0-2.2,6.658C133.452,57.424,132.718,57.136,132.024,56.826Zm15.195,12.591c-3.719,2.959-7.058,3.987-9.15,2.832s-3.007-4.538-2.513-9.276c0.079-.76.2-1.543,0.342-2.341a50.574,50.574,0,0,0,7.716,1.517,50.5,50.5,0,0,0,5.4,5.721C148.416,68.423,147.818,68.943,147.219,69.418Zm18.173-7.66c0.874,4.677.235,8.12-1.76,9.445a4.165,4.165,0,0,1-2.339.641c-2.39,0-5.548-1.461-8.907-4.107a50.111,50.111,0,0,0,4.419-5.431,48.413,48.413,0,0,0,8.387-1.525Q165.3,61.274,165.392,61.758Zm2.7-4.4c-0.421.176-.859,0.343-1.306,0.5a48.346,48.346,0,0,0-3.2-7.935,50.866,50.866,0,0,0,2.193-6.649c0.764,0.272,1.5.561,2.2,0.872,4.333,1.93,6.8,4.417,6.751,6.813C174.68,53.281,172.263,55.616,168.092,57.359Zm-6.076-26.117a4.119,4.119,0,1,0-4.1-4.119A4.111,4.111,0,0,0,162.016,31.241Z" transform="translate(-123 -22)"/>
  </g>
</svg>
