<svg xmlns="http://www.w3.org/2000/svg" width="54" height="54" viewBox="0 0 54 54">
  <metadata><?xpacket begin="﻿" id="W5M0MpCehiHzreSzNTczkc9d"?>
<x:xmpmeta xmlns:x="adobe:ns:meta/" x:xmptk="Adobe XMP Core 5.6-c138 79.159824, 2016/09/14-01:09:01        ">
   <rdf:RDF xmlns:rdf="http://www.w3.org/1999/02/22-rdf-syntax-ns#">
      <rdf:Description rdf:about=""/>
   </rdf:RDF>
</x:xmpmeta>
                                                                                                    
                                                                                                    
                                                                                                    
                                                                                                    
                                                                                                    
                                                                                                    
                                                                                                    
                                                                                                    
                                                                                                    
                                                                                                    
                                                                                                    
                                                                                                    
                                                                                                    
                                                                                                    
                                                                                                    
                                                                                                    
                                                                                                    
                                                                                                    
                                                                                                    
                                                                                                    
                           
<?xpacket end="w"?></metadata>
<defs>
    <style>
      .cls-1 {
        fill: #fff;
        fill-rule: evenodd;
      }
    </style>
  </defs>
  <g id="画板_1" data-name="画板 1">
    <path id="形状_7" data-name="形状 7" class="cls-1" d="M27.791,4.62C40.423,4.62,50.758,14.691,50.758,27S40.423,49.38,27.791,49.38,4.823,39.309,4.823,27,15.158,4.62,27.791,4.62M27.5,2.012C13.656,2.012,2,13.435,2,27S13.656,51.988,27.5,51.988,52.994,40.922,52.994,27,41.7,2.012,27.5,2.012Zm-9.47,12.494c-0.364,0-.364-0.357,0,0-0.729-1.071-.729-2.142,0-2.5a14.65,14.65,0,0,1,7.649-3.213H26.4a16.7,16.7,0,0,1,15.3,6.069A1.331,1.331,0,0,1,41.338,17a1.388,1.388,0,0,1-2.185-.357,13.408,13.408,0,0,0-12.384-4.641H26.04a13.37,13.37,0,0,0-6.192,2.5A1.682,1.682,0,0,1,18.027,14.506Zm25.133,10a1.889,1.889,0,0,1-.728-1.071c0-.714-0.364-1.428-0.364-2.142-0.364-.714.364-1.785,1.093-2.142s1.821,0.357,2.185,1.071,0.364,1.785.728,2.856a1.6,1.6,0,0,1-1.457,1.785A8.4,8.4,0,0,1,43.16,24.5Zm-24.4,11.066A25.863,25.863,0,0,1,27.5,34.14a25.863,25.863,0,0,1,8.742,1.428A24.445,24.445,0,0,1,34.782,27a24.444,24.444,0,0,1,1.457-8.567A25.866,25.866,0,0,1,27.5,19.86a25.866,25.866,0,0,1-8.742-1.428A24.449,24.449,0,0,1,20.212,27,24.45,24.45,0,0,1,18.755,35.567Z"/>
  </g>
</svg>
