<svg xmlns="http://www.w3.org/2000/svg" width="54" height="54" viewBox="0 0 54 54">
  <metadata><?xpacket begin="﻿" id="W5M0MpCehiHzreSzNTczkc9d"?>
<x:xmpmeta xmlns:x="adobe:ns:meta/" x:xmptk="Adobe XMP Core 5.6-c138 79.159824, 2016/09/14-01:09:01        ">
   <rdf:RDF xmlns:rdf="http://www.w3.org/1999/02/22-rdf-syntax-ns#">
      <rdf:Description rdf:about=""/>
   </rdf:RDF>
</x:xmpmeta>
                                                                                                    
                                                                                                    
                                                                                                    
                                                                                                    
                                                                                                    
                                                                                                    
                                                                                                    
                                                                                                    
                                                                                                    
                                                                                                    
                                                                                                    
                                                                                                    
                                                                                                    
                                                                                                    
                                                                                                    
                                                                                                    
                                                                                                    
                                                                                                    
                                                                                                    
                                                                                                    
                           
<?xpacket end="w"?></metadata>
<defs>
    <style>
      .cls-1 {
        fill: #fff;
        fill-rule: evenodd;
      }
    </style>
  </defs>
  <g id="画板_1" data-name="画板 1">
    <path id="形状_6" data-name="形状 6" class="cls-1" d="M25.948,52.988a9.019,9.019,0,0,0,4.424-1.353c1.16-.655,4.832-2.87,7.514-4.488l0.063-.038c0.859-.518,1.6-0.964,2.086-1.257a3.669,3.669,0,0,1,1.679-.662,2.764,2.764,0,0,1,1.521.741l3.5,2.649a0.611,0.611,0,0,0,.569.1,0.732,0.732,0,0,0,.434-0.441l6.211-16.075A0.867,0.867,0,0,0,53.61,31.1l-0.581-.315c-0.632-.343-6.254-3.385-8.988-4.642a9.752,9.752,0,0,0-4.069-1.017c-2.408,0-4.028,1.189-5.743,2.447l-0.038.028-0.319.233c-1.04.758-4.135,3.384-4.569,3.754a13.209,13.209,0,0,1-6.194,2.121,18.009,18.009,0,0,0-5.368.449c-1.48.517-2.169,1.6-2.169,3.424a3.5,3.5,0,0,0,2.438,3.358,7.439,7.439,0,0,0,2.348.51h8.454c4.9-.209,6.374-1.248,7.883-2.421L38.737,36.5c0.518-.648.09-1.7-0.762-1.294l-2.76,1.318c-0.038.018-3.841,1.812-6.4,1.812H20.386a3.223,3.223,0,0,1-2.14-.756,2.824,2.824,0,0,1,.011-0.311,0.817,0.817,0,0,1,.2-0.1,17.819,17.819,0,0,1,4.649-.34c3.757,0,7.439-2.474,7.593-2.58l0.028-.02,0.058-.044,0.03-.024c0.033-.029,3.471-2.953,4.471-3.681l0.318-.233,0.044-.032c1.439-1.056,2.682-1.968,4.32-1.968a7.493,7.493,0,0,1,3.088.8C45,29.94,48.553,31.818,50.7,32.97L46.249,44.494l-1.567-1.187a4.946,4.946,0,0,0-2.967-1.236,5.62,5.62,0,0,0-2.9,1.007l-2.09,1.259-0.028.017c-2.531,1.526-6.356,3.834-7.49,4.474a6.756,6.756,0,0,1-3.257,1.04,6.057,6.057,0,0,1-3.559-1.585c-0.3-.218-0.6-0.44-0.916-0.652C19.513,46.317,5.9,35.8,4.478,34.627c-1.542-1.269-1.785-2-1.818-2.249a0.772,0.772,0,0,1,.18-0.55,1.331,1.331,0,0,1,1.213-.618,5.963,5.963,0,0,1,3.1,1.289l1.287,0.887a0.608,0.608,0,0,0,.755-0.042,0.874,0.874,0,0,0,.268-0.823l-0.324-1.7A0.636,0.636,0,0,1,9.2,30.3a1.052,1.052,0,0,1,.854-0.353,3.532,3.532,0,0,1,2.829,1.245L13.4,31.811a0.633,0.633,0,0,0,.535.237,0.667,0.667,0,0,0,.5-0.316l0.453-.695c0.611-.938,1.026-1.13,1.461-1.13,0.688,0,1.777.546,3.329,1.668,0.709,0.512,1.546,1.133,1.57,1.148a0.611,0.611,0,0,0,.44.083l2.891-.582a0.92,0.92,0,0,0,.707-0.656c0.049-.335.057-0.161-0.2-0.327-0.039-.026-2.715-2.237-4-3.167a6.2,6.2,0,0,0-4.321-1.293c-0.139,0-.281.008-0.417,0.008a3.646,3.646,0,0,0-2.662,1.191,6.112,6.112,0,0,0-3.644-1.154A3.509,3.509,0,0,0,7.11,28.345a3.615,3.615,0,0,0-.277.477,6.465,6.465,0,0,0-2.78-.731A3.868,3.868,0,0,0,.721,29.926a4.193,4.193,0,0,0-.7,2.918c0.191,1.472,1.118,2.848,2.919,4.33C4.372,38.358,18.146,49,20.137,50.335c0.269,0.181.538,0.378,0.823,0.586a8.192,8.192,0,0,0,4.988,2.068h0ZM20.775,15.962H18.889a0.5,0.5,0,0,1-.406-0.262,1.273,1.273,0,0,1-.171-0.53,0.926,0.926,0,0,1,.171-0.477,0.543,0.543,0,0,1,.406-0.209h1.886V13.75l-1.886-.012a0.53,0.53,0,0,1-.406-0.221,1.012,1.012,0,0,1-.171-0.5,0.925,0.925,0,0,1,.171-0.477,0.543,0.543,0,0,1,.406-0.21H20.3l-1.31-2.747A1.821,1.821,0,0,1,18.8,9.229a1.117,1.117,0,0,1-.078-0.471,1.2,1.2,0,0,1,.2-0.53,0.781,0.781,0,0,1,.547-0.262,0.718,0.718,0,0,1,.42.192,1.6,1.6,0,0,1,.3.367l1.486,3.236L23.307,8.5a1.31,1.31,0,0,1,.3-0.349,0.853,0.853,0,0,1,.42-0.186,1.37,1.37,0,0,1,.269.047,0.556,0.556,0,0,1,.215.116,0.628,0.628,0,0,1,.156.233,1.5,1.5,0,0,1,.093.4,1.159,1.159,0,0,1-.2.64L23.053,12.33h1.437a0.55,0.55,0,0,1,.4.21,0.843,0.843,0,0,1,.166.477,0.962,0.962,0,0,1-.171.512,0.541,0.541,0,0,1-.406.233l-1.867.012v0.71h1.877a0.526,0.526,0,0,1,.4.233,0.967,0.967,0,0,1,.166.5,0.954,0.954,0,0,1-.166.506,0.531,0.531,0,0,1-.4.227l-1.876-.012v1.234a0.863,0.863,0,0,1-.909.989,0.894,0.894,0,0,1-.669-0.244,1.089,1.089,0,0,1-.259-0.745v-1.21h0ZM15.986,4.018a8.269,8.269,0,0,1,3.977,1.25A11.47,11.47,0,0,0,25.534,6.9a21.157,21.157,0,0,0,6.927-1.3V19.249a5.985,5.985,0,0,1-1.39.9,12.612,12.612,0,0,1-5.4,1.014,9.145,9.145,0,0,1-4.457-1.353,10.668,10.668,0,0,0-5.09-1.532,19.739,19.739,0,0,0-5.51.825l-0.25.068V5.376A0.169,0.169,0,0,1,10.4,5.258a1.528,1.528,0,0,1,.59-0.452,11.272,11.272,0,0,1,5-.788m0-2.006c-5.4,0-7.349,1.442-7.349,3.365V19.8c0,1.187.26,1.561,0.873,1.561,1.041,0,3.1-1.08,6.614-1.08,3.627,0,5.325,2.885,9.547,2.885,6.568,0,8.325-2.95,8.5-2.949,0.011,0,.016.011,0.016,0.033V4.415c0-.893-0.522-0.964-1.23-0.964l-0.419,0A19.816,19.816,0,0,1,25.533,4.9c-4.011,0-5.688-2.884-9.547-2.884h0Z"/>
  </g>
</svg>
