<?xml version="1.0" encoding="utf-8"?>
<!-- Generator: Adobe Illustrator 21.0.0, SVG Export Plug-In . SVG Version: 6.00 Build 0)  -->
<svg version="1.1" id="图层_1" xmlns="http://www.w3.org/2000/svg" xmlns:xlink="http://www.w3.org/1999/xlink" x="0px" y="0px"
	 viewBox="0 0 54 54" style="enable-background:new 0 0 54 54;" xml:space="preserve">
<style type="text/css">
	.st0{fill:#FFFFFF;}
</style>
<g>
	<rect x="19.5" y="27" class="st0" width="3" height="22.9"/>
	<rect x="30.6" y="27" class="st0" width="3" height="22.9"/>
	<rect x="41.7" y="27" class="st0" width="3" height="22.9"/>
	<rect x="8.4" y="27" class="st0" width="3" height="22.9"/>
</g>
<g>
	<path class="st0" d="M50.5,27.4H2.6c-1.5,0-2-0.8-2.1-1.2c-0.1-0.4-0.4-1.3,0.7-2.4L24.3,1.4c1.3-1.2,3.3-1.2,4.6,0L52,23.8
		c1.1,1,0.9,2,0.7,2.4C52.5,26.5,52,27.4,50.5,27.4z M2.8,25.8L2.8,25.8L2.8,25.8z M3.7,24.9h45.8L27.1,3.1c-0.3-0.3-0.8-0.3-1.1,0
		L3.7,24.9z"/>
</g>
<path class="st0" d="M49.3,49.9H3.8c-0.8,0-1.5,0.7-1.5,1.5s0.7,1.5,1.5,1.5h45.5c0.8,0,1.5-0.7,1.5-1.5S50.1,49.9,49.3,49.9z"/>
</svg>
